<svg width="379" height="291.75" xmlns="http://www.w3.org/2000/svg" clip-rule="evenodd">
 <defs>
  <style type="text/css">.fil0 {fill:black}</style>
 </defs>
 <g>
  <title>background</title>
  <rect fill="none" id="canvas_background" height="293.75" width="381" y="-1" x="-1"/>
 </g>
 <g>
  <title>Layer 1</title>
  <g id="svg_1">
   <path id="svg_2" d="m240,286c-124,-26 -86,-263 42,-268c20,145 -55,139 -42,268z" class="fil0"/>
   <path id="svg_3" d="m259,287c-14,-124 61,-123 42,-268c127,24 88,267 -42,268z" class="fil0"/>
   <path id="svg_4" d="m166,224c-80,3 -178,-64 -164,-149c93,6 118,38 158,63c-5,28 -3,59 6,86z" class="fil0"/>
   <path id="svg_5" d="m213,40c-23,21 -40,50 -49,79c-38,-25 -66,-56 -157,-62c33,-81 149,-64 206,-17z" class="fil0"/>
  </g>
  <text id="svg_6" font-family="'Helvetica Neue', Helvetica, Arial-Unicode, Arial, Sans-serif" font-weight="bold" font-size="5px" fill="#000000" y="302" x="0">Created by Humantech</text>
  <text id="svg_7" font-family="'Helvetica Neue', Helvetica, Arial-Unicode, Arial, Sans-serif" font-weight="bold" font-size="5px" fill="#000000" y="307" x="0">from the Noun Project</text>
 </g>
</svg>